<?xml version="1.0" encoding="utf-8"?>
<!-- Generator: Adobe Illustrator 23.0.3, SVG Export Plug-In . SVG Version: 6.00 Build 0)  -->
<svg version="1.1" id="Layer_1" xmlns="http://www.w3.org/2000/svg" xmlns:xlink="http://www.w3.org/1999/xlink" x="0px" y="0px"
	 viewBox="0 0 591 882" style="enable-background:new 0 0 591 882;" xml:space="preserve">
<style type="text/css">
	.st0{fill:#363636;}
	.st1{opacity:0.08;}
	.st2{fill:none;stroke:#FFFFFF;stroke-width:2;stroke-miterlimit:10;stroke-dasharray:12;}
	.st3{fill:none;}
	.st4{fill:#FFFFFF;}
</style>
<rect id="Rectangle_211" x="-93.48" y="-24.94" class="st0" width="778.48" height="965.94"/>
<g id="Group_14" transform="translate(-978.455 218.099)" class="st1">
	<g id="Group_13" transform="translate(979.476 -217.042)">
		<path id="Path_39" class="st2" d="M65.73,1.41c38.07,23.33,49.98,74.34,44.24,118.63s-25.12,85.57-35.43,129.02
			c-9.63,40.71-11.2,82.92-4.62,124.23c6.03,37.75,18.87,75.22,14.95,113.25C82,514.36,70.31,540.4,59.18,566.07
			C32.1,628.5,7.03,693.84,6.95,761.9"/>
		<path id="Path_40" class="st2" d="M137.4,836.82c29.99-20.15,56.97-46.12,72.79-78.6c7.69-15.77,12.67-33.23,11.65-50.74
			c-0.97-16.77-7.39-32.87-16.23-47.16c-17.49-28.29-44.04-49.78-71.67-68.3c-27.63-18.51-56.9-34.68-82.96-55.36
			c-10.71-8.5-21.03-17.98-27.66-29.94c-6.68-12.05-9.23-25.91-10.98-39.58c-2.35-18.38-3.13-38.23,6.28-54.2"/>
		<path id="Path_41" class="st2" d="M308.74,813.29c59.87-34.62,98.89-99.22,112.07-167.12s2.59-138.72-19.62-204.22
			c-18.58-54.79-45.66-110.87-35.07-167.75c6.74-36.19,28.73-68.49,57.17-91.86s63.01-38.37,98.54-48.01
			c12.83-3.48,26.02-6.37,37.64-12.82s21.71-17.26,23.48-30.43"/>
		<path id="Path_42" class="st2" d="M562.32,183.51c-11.21,28.06-23.7,57.76-48.62,74.85c-17.92,12.29-40.31,16.54-58.57,28.31
			c-25.65,16.54-40.38,46.69-43.63,77.04s3.76,60.94,14.06,89.66c18.29,51,46.8,97.64,76.34,143.05
			c21.52,33.08,44.11,66.67,53.09,105.1c4.68,19.93,2.84,40.84-5.23,59.65c-12.42,28.83-83.18,77.69-180.34,61.4"/>
		<path id="Path_43" class="st2" d="M555.39,522.69c9.57,42.53,0.1,87.18-15.03,128.06c-10.73,28.99-25.05,57.88-49.06,77.34
			c-34.06,27.6-80.79,31.36-123.01,43.16c-33.06,9.24-65.12,24.42-89.64,48.45s-40.8,57.67-39.16,91.96"/>
		<path id="Path_44" class="st2" d="M321.28-22.09c29.57-7.34,61.53,7.25,81.2,30.51s28.78,53.75,33,83.92s4.08,60.81,7.87,91.04
			c5.04,40.18,17.41,80.08,40.83,113.12s58.68,58.69,98.6,65.55"/>
		<path id="Path_45" class="st2" d="M318.2,16.11c-6.57,22.52-13.22,45.23-24.28,65.92s-27.01,39.48-48.05,49.87
			c-27.53,13.59-59.92,11.35-90.01,17.48c-35.5,7.23-67.61,26.18-96.3,48.32c-17.48,13.49-34.15,28.47-46.47,46.78
			s-20.08,40.33-18.36,62.34"/>
		<path id="Path_46" class="st2" d="M362.75,12.25c3.69,98.81-46.91,197.96-129.09,252.94c-34.17,22.86-72.72,38.21-108.81,57.9
			c-36.09,19.69-70.94,45.07-90.48,81.24c-18.53,34.3-21.41,74.59-23.91,113.5"/>
		<path id="Path_47" class="st2" d="M238.69,803.76c31.06-78.94,75.59-154.47,85.27-238.75c8.97-78.07-13.11-156.68-44.54-228.7
			s-72.26-139.64-103.88-211.59C157.77,84.26,142.7,40.93,145.98-3.14"/>
		<path id="Path_48" class="st2" d="M574.61,268.97c-38.5-1.38-77.23,16.22-101.52,46.13s-33.53,71.44-24.26,108.83
			c3.96,15.95,11.06,31.04,20.01,44.82c7.93,12.5,17.77,23.69,29.15,33.16c26,21.12,59.54,30.01,91.98,38.35"/>
		<path id="Path_49" class="st2" d="M283.6,18.18c0.22,33.63-25.75,62.79-55.96,77.57s-64.44,18.37-97.66,23.7
			s-67.51,13.27-93.46,34.67C15.08,171.99,1.37,197.46-1.74,225.2"/>
		<path id="Path_50" class="st2" d="M13.84,548.56c46.76,20.61,88.53,51.05,122.47,89.26c14.84,16.73,28.31,35.28,35.19,56.57
			c8.22,25.41,6.17,54.34-7.16,77.48c-20.64,35.81-62.96,52.47-92.24,81.65"/>
		<path id="Path_51" class="st2" d="M208.21,823.69c28.74-54.78,51.83-112.35,68.89-171.82c14.14-49.27,24.15-100.36,21.54-151.55
			c-5.07-99.61-56.65-189.82-99.9-279.7c-35.02-72.78-65.94-152.92-52.15-232.5"/>
		<path id="Path_52" class="st2" d="M420.37-3.58c19.51,11.27,31.46,32.56,37.04,54.38s5.67,44.62,6.91,67.11
			c2.46,44.54,9.76,89.41,28.28,129.99c4.88,10.7,10.64,21.21,18.92,29.56c11.65,11.74,27.61,18.44,43.84,21.63
			c16.23,3.18,32.9,3.11,49.44,3.03"/>
	</g>
	<rect id="Rectangle_213" x="1013.57" y="-185.78" class="st3" width="509.12" height="763.67"/>
	<path id="Path_53" class="st4" d="M1460.3,11.72c-0.94-1.02-1.88-1.96-2.74-2.97c-3.7-4.2-6.88-8.84-9.48-13.8
		c-0.61-1.2-1.12-2.45-1.62-3.69c-1.07-2.69-1.11-5.67-0.12-8.39c1.57-5.26,6.02-9.15,11.45-9.98c7.96-1.42,15.56,3.88,16.99,11.84
		c0.01,0.04,0.01,0.08,0.02,0.12c0.4,2.52,0.05,5.11-1.02,7.43c-1.24,2.86-2.75,5.6-4.51,8.18c-2.53,3.89-5.43,7.54-8.65,10.89
		C1460.53,11.44,1460.44,11.55,1460.3,11.72z M1466.36-12.69c-0.01-3.34-2.72-6.03-6.06-6.02s-6.03,2.72-6.02,6.06
		s2.72,6.03,6.06,6.02S1466.37-9.36,1466.36-12.69z"/>
	<path id="Path_54" class="st4" d="M1385.8-14.43c-0.94-1.02-1.88-1.96-2.74-2.97c-3.7-4.2-6.88-8.84-9.48-13.8
		c-0.61-1.2-1.12-2.44-1.62-3.69c-1.07-2.69-1.11-5.67-0.12-8.39c1.57-5.26,6.02-9.15,11.45-9.99c7.96-1.42,15.56,3.88,16.99,11.84
		c0.01,0.04,0.01,0.08,0.02,0.13c0.4,2.52,0.05,5.11-1.02,7.43c-1.24,2.86-2.75,5.6-4.51,8.18c-2.53,3.89-5.43,7.54-8.65,10.89
		C1386.03-14.7,1385.95-14.59,1385.8-14.43z M1391.86-38.83c-0.05-3.31-2.73-5.99-6.05-6.03c-3.33,0.04-6.01,2.74-6.03,6.07
		c0.05,3.32,2.74,5.99,6.05,6.01C1389.15-32.84,1391.82-35.52,1391.86-38.83L1391.86-38.83z"/>
	<path id="Path_55" class="st4" d="M1068.56,254.68c-0.94-1.02-1.88-1.96-2.74-2.97c-3.7-4.2-6.88-8.84-9.48-13.8
		c-0.61-1.2-1.12-2.45-1.62-3.69c-1.07-2.69-1.11-5.67-0.12-8.39c1.57-5.26,6.02-9.15,11.45-9.99c7.96-1.42,15.56,3.88,16.98,11.84
		c0.01,0.04,0.01,0.08,0.02,0.13c0.4,2.52,0.05,5.11-1.02,7.43c-1.24,2.86-2.75,5.6-4.51,8.18c-2.53,3.9-5.43,7.54-8.65,10.89
		C1068.79,254.41,1068.71,254.51,1068.56,254.68z M1074.62,230.27c0-3.34-2.71-6.04-6.05-6.03c-3.34,0-6.04,2.71-6.03,6.05
		c0,3.34,2.71,6.04,6.05,6.03c0,0,0,0,0.01,0C1071.9,236.26,1074.57,233.59,1074.62,230.27L1074.62,230.27z"/>
	<path id="Path_56" class="st4" d="M1191.12,462.38c-0.95-1.02-1.88-1.96-2.74-2.97c-3.7-4.2-6.88-8.84-9.48-13.8
		c-0.61-1.2-1.12-2.45-1.62-3.69c-1.07-2.69-1.11-5.67-0.12-8.39c1.56-5.26,6.02-9.15,11.45-9.98c7.96-1.42,15.56,3.88,16.99,11.84
		c0.01,0.04,0.01,0.08,0.02,0.12c0.4,2.52,0.05,5.11-1.02,7.43c-1.24,2.86-2.75,5.6-4.51,8.18c-2.53,3.9-5.43,7.54-8.65,10.89
		C1191.35,462.11,1191.27,462.21,1191.12,462.38z M1197.19,437.97c0-3.34-2.71-6.04-6.05-6.03c-3.34,0-6.04,2.71-6.03,6.05
		c0,3.34,2.71,6.04,6.05,6.03c0,0,0,0,0.01,0C1194.47,443.96,1197.14,441.28,1197.19,437.97L1197.19,437.97z"/>
	<path id="Path_57" class="st4" d="M1377.76,501.46c-0.95-1.02-1.88-1.96-2.74-2.97c-3.7-4.2-6.88-8.84-9.48-13.8
		c-0.61-1.2-1.12-2.45-1.62-3.69c-1.07-2.69-1.11-5.67-0.12-8.39c1.56-5.26,6.02-9.15,11.45-9.98c7.96-1.42,15.56,3.88,16.99,11.84
		c0.01,0.04,0.01,0.08,0.02,0.13c0.4,2.52,0.05,5.11-1.02,7.43c-1.24,2.86-2.75,5.6-4.51,8.18c-2.53,3.89-5.43,7.54-8.65,10.89
		C1377.99,501.19,1377.91,501.29,1377.76,501.46z M1383.82,477.05c0-3.34-2.71-6.04-6.05-6.03s-6.04,2.71-6.03,6.05
		c0,3.34,2.71,6.04,6.05,6.03c0,0,0,0,0.01,0C1381.11,483.04,1383.77,480.36,1383.82,477.05L1383.82,477.05z"/>
	<path id="Path_58" class="st4" d="M1470.32,519.68c-0.94-1.02-1.88-1.96-2.74-2.97c-3.7-4.2-6.88-8.84-9.48-13.8
		c-0.61-1.2-1.12-2.45-1.62-3.69c-1.07-2.69-1.11-5.67-0.12-8.39c1.57-5.26,6.02-9.15,11.45-9.98c7.96-1.42,15.56,3.88,16.98,11.84
		c0.01,0.04,0.01,0.08,0.02,0.13c0.4,2.52,0.05,5.11-1.02,7.43c-1.24,2.86-2.75,5.6-4.51,8.18c-2.53,3.89-5.43,7.54-8.65,10.89
		C1470.56,519.41,1470.47,519.51,1470.32,519.68z M1476.39,495.27c0-3.34-2.71-6.04-6.05-6.03s-6.04,2.71-6.03,6.05
		c0,3.34,2.71,6.04,6.05,6.03c0,0,0,0,0.01,0C1473.67,501.26,1476.34,498.58,1476.39,495.27L1476.39,495.27z"/>
</g>
</svg>
