<?xml version="1.0" encoding="utf-8"?>
<!-- Generator: Adobe Illustrator 23.0.3, SVG Export Plug-In . SVG Version: 6.00 Build 0)  -->
<svg version="1.1" id="Layer_1" xmlns="http://www.w3.org/2000/svg" xmlns:xlink="http://www.w3.org/1999/xlink" x="0px" y="0px"
	 viewBox="0 0 150 133" style="enable-background:new 0 0 150 133;" xml:space="preserve">
<style type="text/css">
	.st0{fill:#afa9a9;}
	.st1{fill:#afa9a9;}
</style>
<g>
	<path class="st0" d="M-47,296.6c0,20.79,0.01,41.57,0,62.36c0,5.56-3.58,10.23-8.92,11.6c-1.13,0.29-2.33,0.41-3.5,0.42
		c-25.34,0.02-50.68,0.02-76.02,0.01c-7.3,0-12.5-5.21-12.5-12.51c0-41.32,0-82.64,0-123.96c0-6.05,3.63-10.77,9.41-12.15
		c1.09-0.26,2.25-0.34,3.38-0.34c25.13-0.02,50.26-0.02,75.39-0.01c6.63,0,11.39,3.82,12.61,10.1c0.16,0.82,0.14,1.68,0.14,2.52
		C-47,255.28-47,275.94-47,296.6z M-51.81,296.53c0-20.74,0-41.49-0.01-62.23c0-0.79-0.05-1.62-0.29-2.36
		c-1.07-3.37-3.78-5.13-7.82-5.13c-24.83,0-49.67,0-74.5,0c-0.38,0-0.76-0.01-1.14,0c-4.67,0.18-7.57,3.19-7.57,7.84
		c0,41.23,0,82.47,0,123.7c0,4.79,3.01,7.82,7.79,7.83c6.41,0.01,12.82,0,19.23,0c18.93,0,37.86,0,56.79,0
		c4.44,0,7.52-3.06,7.52-7.42C-51.81,338.02-51.81,317.28-51.81,296.53z"/>
	<path class="st0" d="M-61.43,282.15c-0.01,19.87-16.11,35.96-36.01,35.97c-19.91,0.01-36.14-16.17-36.07-36.07
		c0.07-19.6,15.73-35.97,36.05-35.97C-76.73,246.06-61.27,263.01-61.43,282.15z M-82.81,284.56c-4.37,0-8.26,0-12.16,0
		c0,4.02,0,7.95,0,11.99c3.29,0,6.48,0.02,9.67-0.03c0.26,0,0.7-0.38,0.74-0.63C-83.95,292.17-83.4,288.45-82.81,284.56z
		 M-112.02,284.53c0.55,4.08,1.08,8.01,1.61,11.94c3.66,0,7.05,0,10.45,0c0-4.02,0-7.95,0-11.94
		C-103.89,284.53-107.75,284.53-112.02,284.53z M-128.53,284.52c0.17,3.21,0.94,6.15,2.07,9.01c1.2,3.02,1.2,3.02,4.45,3.02
		c2.26,0,4.52,0,6.72,0c-0.51-4.09-1-8.03-1.5-12.03C-120.61,284.52-124.47,284.52-128.53,284.52z M-79.57,296.55
		c2.21,0,4.43,0,6.65,0c3.3,0,3.31,0.01,4.52-3.08c1.12-2.85,1.91-5.78,2-8.89c-4.02,0-7.94,0-11.73,0
		C-78.61,288.61-79.08,292.52-79.57,296.55z M-82.82,279.63c-0.58-3.88-1.12-7.57-1.73-11.25c-0.04-0.27-0.63-0.61-0.99-0.63
		c-1.3-0.07-2.61-0.03-3.92-0.03c-1.84,0-3.68,0-5.52,0c0,4.08,0,7.97,0,11.91C-91.02,279.63-87.16,279.63-82.82,279.63z
		 M-110.22,267.76c-0.9,3.95-1.53,7.86-1.56,11.82c4.06,0,7.96,0,11.8,0c0-4,0-7.9,0-11.82
		C-103.4,267.76-106.73,267.76-110.22,267.76z M-115.33,267.7c-3.09,0-6.16-0.02-9.23,0.03c-0.33,0.01-0.8,0.43-0.95,0.77
		c-0.71,1.7-1.46,3.4-1.96,5.17c-0.54,1.9-0.83,3.88-1.24,5.91c4.24,0,8.13,0,11.92,0C-116.29,275.62-115.82,271.74-115.33,267.7z
		 M-66.43,279.62c-0.08-3.05-0.84-5.83-1.86-8.55c-1.26-3.37-1.28-3.36-4.83-3.36c-2.17,0-4.35,0-6.45,0
		c0.49,4.07,0.97,7.97,1.45,11.92C-74.3,279.62-70.44,279.62-66.43,279.62z M-94.96,251.35c0,4,0,7.72,0,11.45c2.94,0,5.78,0,8.82,0
		C-88.14,258.21-90.19,253.9-94.96,251.35z M-99.95,262.82c0-3.78,0-7.49,0-11.21c-3.11,0.81-8.42,7.86-8.47,11.21
		C-105.62,262.82-102.83,262.82-99.95,262.82z M-95.02,312.85c4.83-2.47,6.84-6.85,8.85-11.38c-3.07,0-5.94,0-8.85,0
		C-95.02,305.25-95.02,308.93-95.02,312.85z M-108.72,301.42c1.97,4.6,4.05,8.88,8.76,11.39c0-3.93,0-7.64,0-11.39
		C-102.86,301.42-105.68,301.42-108.72,301.42z M-72.84,262.91c-3.59-4.43-7.67-7.62-12.5-9.53c1.33,2.93,2.67,5.9,4.04,8.86
		c0.13,0.28,0.49,0.63,0.74,0.64C-78.1,262.93-75.64,262.91-72.84,262.91z M-122.03,262.92c2.08,0,3.83,0,5.58,0
		c2.57,0,2.49-0.04,3.51-2.34c1.08-2.43,2.34-4.79,3.57-7.26C-114.41,255.29-118.44,258.51-122.03,262.92z M-121.99,301.37
		c3.58,4.37,7.67,7.54,12.46,9.47c-1.33-2.94-2.69-5.95-4.07-8.94c-0.1-0.22-0.39-0.51-0.6-0.51
		C-116.71,301.36-119.21,301.37-121.99,301.37z M-72.91,301.36c-2.71,0-5.07,0.03-7.42-0.02c-0.7-0.01-0.87,0.35-1.12,0.89
		c-1.22,2.61-2.51,5.2-3.78,7.79c-0.13,0.27-0.28,0.53-0.51,0.96C-80.56,308.91-76.5,305.73-72.91,301.36z"/>
	<path class="st0" d="M-128.64,344.51c0-1.56,0-3.06,0-4.63c20.79,0,41.52,0,62.32,0c0,1.53,0,3.03,0,4.63
		C-87.06,344.51-107.82,344.51-128.64,344.51z"/>
</g>
<path class="st1" d="M29.71,71.23c0-9.89,0-19.57,0-29.49c-0.59,0-1.15,0-1.72,0c-8.09,0-16.19,0-24.28,0c-0.39,0-0.78,0.01-1.17,0
	c-2.02-0.09-2.69-1.15-1.85-3.01c2.52-5.59,5.07-11.17,7.61-16.76c3.06-6.74,6.14-13.47,9.16-20.23C18.01,0.51,18.77,0,20.14,0
	c36.47,0.02,72.95,0.03,109.42,0c1.52,0,2.37,0.56,3.01,1.97c5.39,11.99,10.78,23.98,16.33,35.9c1.51,3.24,0.1,3.95-2.62,3.92
	c-8.09-0.1-16.19-0.04-24.28-0.04c-0.58,0-1.15,0-1.82,0c0,9.86,0,19.58,0,29.42c0.57,0.03,1.09,0.07,1.61,0.07
	c3.85,0.01,7.7-0.01,11.56,0.01c1.89,0.01,2.37,0.5,2.37,2.34c0.01,13.46,0.01,26.92,0,40.38c0,1.89-0.54,2.44-2.43,2.44
	c-4.33,0.02-8.66,0.01-13.2,0.01c0,1.5,0,2.89,0,4.29c0,2.97,0.01,5.95,0,8.92c-0.01,1.81-0.56,2.36-2.35,2.37
	c-3.07,0.01-6.14,0.01-9.22,0c-1.8-0.01-2.36-0.56-2.37-2.35c-0.02-4.33,0-8.67,0-13.12c-20.79,0-41.49,0-62.41,0
	c0,0.47,0,0.98,0,1.5c0,3.85,0.01,7.7,0,11.56c0,1.88-0.54,2.41-2.44,2.42c-3.02,0.01-6.05,0.01-9.07,0
	c-1.89-0.01-2.4-0.53-2.41-2.46c-0.01-4.29,0-8.58,0-13.12c-0.58,0-1.09,0-1.6,0c-3.8,0-7.61,0.01-11.41,0
	c-2.07-0.01-2.6-0.54-2.6-2.59c0-13.36,0-26.72,0-40.08c0-2.02,0.48-2.5,2.49-2.5C20.96,71.23,25.25,71.23,29.71,71.23z
	 M132.26,112.84c0-0.6,0-1.13,0-1.65c0-11.56-0.03-23.12,0.04-34.67c0.01-1.49-0.39-1.85-1.87-1.85
	c-37.02,0.04-74.03,0.03-111.05,0.03c-0.52,0-1.04,0-1.59,0c0,12.83,0,25.48,0,38.15C55.96,112.84,94.02,112.84,132.26,112.84z
	 M145.07,38.2c-0.17-0.47-0.26-0.74-0.37-1c-4.96-10.9-9.93-21.79-14.84-32.72c-0.47-1.05-1.14-0.98-1.96-0.98
	C92.6,3.51,57.3,3.52,22,3.48c-1.16,0-1.69,0.35-2.16,1.39C15.04,15.52,10.2,26.15,5.37,36.79c-0.19,0.43-0.35,0.87-0.57,1.41
	C51.6,38.2,98.24,38.2,145.07,38.2z M106.04,71.14c0-9.81,0-19.53,0-29.31c-20.78,0-41.48,0-62.23,0c0,9.81,0,19.53,0,29.31
	C64.59,71.14,85.28,71.14,106.04,71.14z M33.35,41.82c0,9.87,0,19.54,0,29.31c2.29,0,4.51,0,6.76,0c0-9.81,0-19.56,0-29.31
	C37.82,41.82,35.64,41.82,33.35,41.82z M116.53,41.86c-2.37,0-4.58,0-6.8,0c0,9.83,0,19.54,0,29.25c2.33,0,4.54,0,6.8,0
	C116.53,61.31,116.53,51.64,116.53,41.86z M40.19,116.5c-2.35,0-4.56,0-6.83,0c0,4.01,0,7.92,0,11.88c2.32,0,4.57,0,6.83,0
	C40.19,124.39,40.19,120.51,40.19,116.5z M116.51,128.46c0-4.06,0-7.97,0-11.92c-2.32,0-4.57,0-6.79,0c0,4.04,0,7.95,0,11.92
	C112.01,128.46,114.19,128.46,116.51,128.46z"/>
</svg>
