<?xml version="1.0" encoding="utf-8"?>
<!-- Generator: Adobe Illustrator 23.0.3, SVG Export Plug-In . SVG Version: 6.00 Build 0)  -->
<svg version="1.1" id="Layer_1" xmlns="http://www.w3.org/2000/svg" xmlns:xlink="http://www.w3.org/1999/xlink" x="0px" y="0px"
	 viewBox="0 0 101 150" style="enable-background:new 0 0 101 150;" xml:space="preserve">
<style type="text/css">
	.st0{fill:#FCFDFF;}
</style>
<g>
	<path class="st0" d="M101,74.6c0,20.79,0.01,41.57,0,62.36c0,5.56-3.58,10.23-8.92,11.6c-1.13,0.29-2.33,0.41-3.5,0.42
		C63.23,149,37.89,149,12.55,148.99c-7.3,0-12.5-5.21-12.5-12.51c0-41.32,0-82.64,0-123.96c0-6.05,3.63-10.77,9.41-12.15
		c1.09-0.26,2.25-0.34,3.38-0.34C37.98,0,63.11,0,88.24,0.01c6.63,0,11.39,3.82,12.61,10.1c0.16,0.82,0.14,1.68,0.14,2.52
		C101,33.28,101,53.94,101,74.6z M96.19,74.53c0-20.74,0-41.49-0.01-62.23c0-0.79-0.05-1.62-0.29-2.36
		c-1.07-3.37-3.78-5.13-7.82-5.13c-24.83,0-49.67,0-74.5,0c-0.38,0-0.76-0.01-1.14,0C7.76,5,4.86,8,4.86,12.66
		c0,41.23,0,82.47,0,123.7c0,4.79,3.01,7.82,7.79,7.83c6.41,0.01,12.82,0,19.23,0c18.93,0,37.86,0,56.79,0
		c4.44,0,7.52-3.06,7.52-7.42C96.19,116.02,96.19,95.28,96.19,74.53z"/>
	<path class="st0" d="M86.57,60.15C86.57,80.02,70.46,96.1,50.56,96.11C30.65,96.12,14.42,79.94,14.5,60.04
		c0.07-19.6,15.73-35.97,36.05-35.97C71.27,24.06,86.73,41.01,86.57,60.15z M65.19,62.56c-4.37,0-8.26,0-12.16,0
		c0,4.02,0,7.95,0,11.99c3.29,0,6.48,0.02,9.67-0.03c0.26,0,0.7-0.38,0.74-0.63C64.05,70.17,64.6,66.45,65.19,62.56z M35.98,62.53
		c0.55,4.08,1.08,8.01,1.61,11.94c3.66,0,7.05,0,10.45,0c0-4.02,0-7.95,0-11.94C44.11,62.53,40.25,62.53,35.98,62.53z M19.47,62.52
		c0.17,3.21,0.94,6.15,2.07,9.01c1.2,3.02,1.2,3.02,4.45,3.02c2.26,0,4.52,0,6.72,0c-0.51-4.09-1-8.03-1.5-12.03
		C27.39,62.52,23.53,62.52,19.47,62.52z M68.43,74.55c2.21,0,4.43,0,6.65,0c3.3,0,3.31,0.01,4.52-3.08c1.12-2.85,1.91-5.78,2-8.89
		c-4.02,0-7.94,0-11.73,0C69.39,66.61,68.92,70.52,68.43,74.55z M65.18,57.63c-0.58-3.88-1.12-7.57-1.73-11.25
		c-0.04-0.27-0.63-0.61-0.99-0.63c-1.3-0.07-2.61-0.03-3.92-0.03c-1.84,0-3.68,0-5.52,0c0,4.08,0,7.97,0,11.91
		C56.98,57.63,60.84,57.63,65.18,57.63z M37.78,45.76c-0.9,3.95-1.53,7.86-1.56,11.82c4.06,0,7.96,0,11.8,0c0-4,0-7.9,0-11.82
		C44.6,45.76,41.27,45.76,37.78,45.76z M32.67,45.7c-3.09,0-6.16-0.02-9.23,0.03c-0.33,0.01-0.8,0.43-0.95,0.77
		c-0.71,1.7-1.46,3.4-1.96,5.17c-0.54,1.9-0.83,3.88-1.24,5.91c4.24,0,8.13,0,11.92,0C31.71,53.62,32.18,49.74,32.67,45.7z
		 M81.57,57.62c-0.08-3.05-0.84-5.83-1.86-8.55c-1.26-3.37-1.28-3.36-4.83-3.36c-2.17,0-4.35,0-6.45,0
		c0.49,4.07,0.97,7.97,1.45,11.92C73.7,57.62,77.56,57.62,81.57,57.62z M53.04,29.35c0,4,0,7.72,0,11.45c2.94,0,5.78,0,8.82,0
		C59.86,36.21,57.81,31.9,53.04,29.35z M48.05,40.82c0-3.78,0-7.49,0-11.21c-3.11,0.81-8.42,7.86-8.47,11.21
		C42.38,40.82,45.17,40.82,48.05,40.82z M52.98,90.85c4.83-2.47,6.84-6.85,8.85-11.38c-3.07,0-5.94,0-8.85,0
		C52.98,83.25,52.98,86.93,52.98,90.85z M39.28,79.42c1.97,4.6,4.05,8.88,8.76,11.39c0-3.93,0-7.64,0-11.39
		C45.14,79.42,42.32,79.42,39.28,79.42z M75.16,40.91c-3.59-4.43-7.67-7.62-12.5-9.53c1.33,2.93,2.67,5.9,4.04,8.86
		c0.13,0.28,0.49,0.63,0.74,0.64C69.9,40.93,72.36,40.91,75.16,40.91z M25.97,40.92c2.08,0,3.83,0,5.58,0
		c2.57,0,2.49-0.04,3.51-2.34c1.08-2.43,2.34-4.79,3.57-7.26C33.59,33.29,29.56,36.51,25.97,40.92z M26.01,79.37
		c3.58,4.37,7.67,7.54,12.46,9.47c-1.33-2.94-2.69-5.95-4.07-8.94c-0.1-0.22-0.39-0.51-0.6-0.51
		C31.29,79.36,28.79,79.37,26.01,79.37z M75.09,79.36c-2.71,0-5.07,0.03-7.42-0.02c-0.7-0.01-0.87,0.35-1.12,0.89
		c-1.22,2.61-2.51,5.2-3.78,7.79c-0.13,0.27-0.28,0.53-0.51,0.96C67.44,86.91,71.5,83.73,75.09,79.36z"/>
	<path class="st0" d="M19.36,122.51c0-1.56,0-3.06,0-4.63c20.79,0,41.52,0,62.32,0c0,1.53,0,3.03,0,4.63
		C60.94,122.51,40.18,122.51,19.36,122.51z"/>
</g>
</svg>
